<?xml version="1.0" encoding="UTF-8"?>
<svg width="362px" height="229px" viewBox="0 0 362 229" version="1.1" xmlns="http://www.w3.org/2000/svg" xmlns:xlink="http://www.w3.org/1999/xlink">
    <title>Artboard</title>
    <g id="Artboard" stroke="none" stroke-width="1" fill="none" fill-rule="evenodd">
        <rect id="Rectangle" fill-opacity="0.2" fill="#0091FF" x="115" y="14" width="49" height="178"></rect>
        <rect id="Rectangle" fill-opacity="0.2" fill="#FA6400" x="227" y="13" width="49" height="178"></rect>
        <path id="Line" d="M130.885123,60.5953628 L130.798375,61.4800085 L129.902595,70.6149732 L129.853799,71.1125864 L128.858572,71.014994 L128.907369,70.5173807 L129.616,63.282 L126.159274,68.2276712 L92.9097846,115.78649 L92.6232946,116.196275 L91.8037253,115.623295 L92.0902154,115.21351 L125.339704,67.6546911 L128.797,62.708 L122.245562,65.8599549 L121.794963,66.0766582 L121.361556,65.1754597 L121.812155,64.9587564 L130.084058,60.9806131 L130.885123,60.5953628 Z" fill="#000000" fill-rule="nonzero"></path>
        <path id="Line" d="M139.998439,52.4520105 L140.34558,52.811862 L239.664191,155.766963 L243.882,160.14 L242.047719,153.104097 L241.921581,152.620269 L242.889236,152.367992 L243.015374,152.85182 L245.330969,161.733713 L245.555215,162.593851 L244.703693,162.338832 L235.910773,159.705479 L235.431792,159.562031 L235.718688,158.604069 L236.197669,158.747517 L243.161,160.832 L238.944488,156.461245 L139.625877,53.5061442 L139.278736,53.1462927 L139.998439,52.4520105 Z" fill="#000000" fill-rule="nonzero"></path>
        <path id="Line" d="M139.743483,52.1766801 L140.196764,52.3877155 L237.963737,97.9053601 L243.434,100.452 L239.193939,94.5465415 L238.902332,94.1403819 L239.714652,93.557169 L240.006258,93.9633286 L245.359441,101.419429 L245.877853,102.141491 L244.991574,102.209567 L235.839753,102.912532 L235.341221,102.950825 L235.264635,101.953762 L235.763167,101.915469 L243.011,101.358 L237.541666,98.8119229 L139.774693,53.2942783 L139.321412,53.0832428 L139.743483,52.1766801 Z" fill="#000000" fill-rule="nonzero"></path>
        <path id="Line" d="M245.558812,60.409631 L245.331734,61.2690255 L242.986895,70.1432426 L242.859163,70.626652 L241.892344,70.3711889 L242.020076,69.8877795 L243.876,62.86 L239.643356,67.2191123 L139.344435,170.507328 L138.99611,170.866034 L138.278698,170.169384 L138.627023,169.810678 L238.925944,66.5224632 L243.159,62.161 L236.188647,64.2251195 L235.709196,64.3669888 L235.425457,63.4080872 L235.904908,63.2662179 L244.706455,60.6618432 L245.558812,60.409631 Z" fill="#000000" fill-rule="nonzero"></path>
        <path id="Line" d="M236.809343,47.3190816 L237.245131,47.5642122 L245.245131,52.0642122 L246.019864,52.5 L245.245131,52.9357878 L237.245131,57.4357878 L236.809343,57.6809184 L236.319082,56.8093429 L236.754869,56.5642122 L243.089,53 L139,53 L139,52 L243.093,52 L236.754869,48.4357878 L236.319082,48.1906571 L236.809343,47.3190816 Z" fill="#000000" fill-rule="nonzero"></path>
        <path id="Line" d="M235.309343,106.819082 L235.745131,107.064212 L243.745131,111.564212 L244.519864,112 L243.745131,112.435788 L235.745131,116.935788 L235.309343,117.180918 L234.819082,116.309343 L235.254869,116.064212 L241.591,112.5 L137.5,112.5 L137.5,111.5 L241.591,111.5 L235.254869,107.935788 L234.819082,107.690657 L235.309343,106.819082 Z" fill="#000000" fill-rule="nonzero"></path>
        <path id="Line" d="M137.291751,110.824254 L137.733749,111.058003 L235.131512,162.566435 L240.489,165.4 L236.553354,159.286432 L236.282718,158.866008 L237.123565,158.324736 L237.394201,158.74516 L242.362421,166.463112 L242.843552,167.210532 L241.954962,167.23358 L232.779268,167.471579 L232.279436,167.484544 L232.253507,166.48488 L232.753339,166.471915 L240.019,166.282 L234.664015,163.45043 L137.266251,111.941997 L136.824254,111.708249 L137.291751,110.824254 Z" fill="#000000" fill-rule="nonzero"></path>
        <path id="Line" d="M234.287427,55.4432942 L234.787142,55.4601718 L243.960692,55.7700041 L244.849074,55.8000088 L244.362106,56.5436388 L239.333611,64.2224563 L239.059691,64.6407481 L238.223107,64.092909 L238.497027,63.6746171 L242.479,57.593 L237.105583,60.3811568 L137.730281,111.943814 L137.286467,112.174095 L136.825905,111.286467 L137.269719,111.056186 L236.645022,59.4935291 L242.018,56.705 L234.753387,56.4596019 L234.253672,56.4427243 L234.287427,55.4432942 Z" fill="#000000" fill-rule="nonzero"></path>
        <path id="Line" d="M236.809343,165.319082 L237.245131,165.564212 L245.245131,170.064212 L246.019864,170.5 L245.245131,170.935788 L237.245131,175.435788 L236.809343,175.680918 L236.319082,174.809343 L236.754869,174.564212 L243.091,171 L146,171 L146,170 L243.091,170 L236.754869,166.435788 L236.319082,166.190657 L236.809343,165.319082 Z" fill="#000000" fill-rule="nonzero"></path>
        <path id="Line" d="M233.89251,118.447316 L234.391888,118.472265 L243.559233,118.930279 L244.447015,118.974634 L243.948095,119.710299 L238.796185,127.306866 L238.515543,127.720677 L237.68792,127.159392 L237.968563,126.745581 L242.049,120.728 L236.638929,123.425874 L146.636273,168.29474 L146.188796,168.51782 L145.742637,167.622867 L146.190114,167.399787 L236.192769,122.53092 L241.601,119.834 L234.341988,119.47102 L233.842611,119.44607 L233.89251,118.447316 Z" fill="#000000" fill-rule="nonzero"></path>
        <path id="Line" d="M294.485052,122.342563 L294.314803,123.214996 L292.556781,132.223845 L292.461015,132.714588 L291.479529,132.523057 L291.575294,132.032314 L292.968,124.895 L289.055286,129.494002 L253.88077,170.824059 L253.55671,171.204829 L252.795171,170.55671 L253.11923,170.175941 L288.293747,128.845884 L292.205,124.249 L285.385179,126.76413 L284.91606,126.937126 L284.570068,125.998889 L285.039187,125.825893 L293.651063,122.650112 L294.485052,122.342563 Z" fill="#000000" fill-rule="nonzero"></path>
        <path id="Line" d="M93.5762274,115.797014 L93.8896067,116.186621 L126.227911,156.390999 L130.006,161.089 L128.812561,153.91761 L128.730437,153.4244 L129.716855,153.260151 L129.79898,153.753361 L131.306589,162.807482 L131.452588,163.684299 L130.627445,163.35375 L122.106916,159.940456 L121.642773,159.754522 L122.014641,158.826236 L122.478784,159.01217 L129.228,161.716 L125.448698,157.017758 L93.1103933,116.813379 L92.797014,116.423773 L93.5762274,115.797014 Z" fill="#000000" fill-rule="nonzero"></path>
        <path id="Line" d="M119.416655,107.663241 L119.84735,107.917212 L127.753867,112.579507 L128.519548,113.031011 L127.736084,113.450901 L119.645932,117.786732 L119.205233,118.02292 L118.732857,117.141523 L119.173556,116.905335 L125.581,113.471 L119.509895,113.347245 L102.489798,112.999896 L101.989902,112.989694 L102.010306,111.989902 L102.510202,112.000104 L119.530299,112.347453 L125.601,112.471 L119.339408,108.778603 L118.908712,108.524632 L119.416655,107.663241 Z" transform="translate(114.5, 113) rotate(-1.1691) translate(-114.5, -113)" fill="#000000" fill-rule="nonzero"></path>
        <path id="Line" d="M273.906557,105.663449 L274.337252,105.91742 L282.243769,110.579715 L283.00945,111.031219 L282.225986,111.451109 L274.135834,115.786941 L273.695135,116.023128 L273.222759,115.141731 L273.663458,114.905543 L280.071,111.471 L273.999797,111.347453 L256.9797,111.000104 L256.479804,110.989902 L256.500208,109.99011 L257.000104,110.000312 L274.020201,110.347661 L280.091,110.471 L273.82931,106.778811 L273.398614,106.52484 L273.906557,105.663449 Z" transform="translate(268.9899, 111.0002) rotate(-1.1691) translate(-268.9899, -111.0002)" fill="#000000" fill-rule="nonzero"></path>
        <path id="Line" d="M253.104165,52.3006076 L253.401779,52.7023862 L284.688781,94.9398395 L288.277,99.785 L287.369365,92.5706451 L287.306948,92.0745562 L288.299126,91.9497234 L288.361543,92.4458123 L289.507356,101.552794 L289.618318,102.43473 L288.806995,102.07158 L280.429167,98.321646 L279.972798,98.1173741 L280.381342,97.2046354 L280.837711,97.4089073 L287.473,100.378 L283.885224,95.5350671 L252.598221,53.2976138 L252.300608,52.8958352 L253.104165,52.3006076 Z" fill="#000000" fill-rule="nonzero"></path>
        <circle id="Oval" stroke="#228833" fill="#228833" cx="93" cy="112" r="8.5"></circle>
        <circle id="Oval" stroke="#EE6677" fill="#EE6677" cx="293" cy="111" r="8.5"></circle>
        <circle id="Oval" stroke="#000000" fill="#FFFFFF" cx="139" cy="53" r="8.5"></circle>
        <circle id="Oval" stroke="#000000" fill="#FFFFFF" cx="138" cy="111" r="8.5"></circle>
        <circle id="Oval" stroke="#000000" fill="#FFFFFF" cx="254" cy="111" r="8.5"></circle>
        <circle id="Oval" stroke="#000000" fill="#FFFFFF" cx="253" cy="53" r="8.5"></circle>
        <circle id="Oval" stroke="#000000" fill="#FFFFFF" cx="253" cy="170" r="8.5"></circle>
        <circle id="Oval" stroke="#000000" fill="#FFFFFF" cx="139" cy="171" r="8.5"></circle>
        <text id="source-s" font-family="Helvetica" font-size="18" font-weight="normal" fill="#000000">
            <tspan x="6" y="117">source s</tspan>
        </text>
        <text id="workers" font-family="Helvetica" font-size="18" font-weight="normal" fill="#000000">
            <tspan x="108" y="214">workers</tspan>
        </text>
        <text id="tasks" font-family="Helvetica" font-size="18" font-weight="normal" fill="#000000">
            <tspan x="230" y="214">tasks</tspan>
        </text>
        <text id="1" font-family="Helvetica" font-size="16" font-weight="normal" fill="#000000">
            <tspan x="134" y="37">1</tspan>
        </text>
        <text id="2" font-family="Helvetica" font-size="16" font-weight="normal" fill="#000000">
            <tspan x="134" y="96">2</tspan>
        </text>
        <text id="3" font-family="Helvetica" font-size="16" font-weight="normal" fill="#000000">
            <tspan x="134" y="153">3</tspan>
        </text>
        <text id="4" font-family="Helvetica" font-size="16" font-weight="normal" fill="#000000">
            <tspan x="249" y="37">4</tspan>
        </text>
        <text id="5" font-family="Helvetica" font-size="16" font-weight="normal" fill="#000000">
            <tspan x="249" y="96">5</tspan>
        </text>
        <text id="6" font-family="Helvetica" font-size="16" font-weight="normal" fill="#000000">
            <tspan x="249" y="153">6</tspan>
        </text>
        <text id="sink-t" font-family="Helvetica" font-size="18" font-weight="normal" fill="#000000">
            <tspan x="311" y="117">sink t</tspan>
        </text>
    </g>
</svg>